<?xml version="1.0" encoding="UTF-8" standalone="no"?><!DOCTYPE svg PUBLIC "-//W3C//DTD SVG 1.1//EN" "http://www.w3.org/Graphics/SVG/1.1/DTD/svg11.dtd"><svg width="100%" height="100%" viewBox="0 0 1100 807" version="1.1" xmlns="http://www.w3.org/2000/svg" xmlns:xlink="http://www.w3.org/1999/xlink" xml:space="preserve" xmlns:serif="http://www.serif.com/" style="fill-rule:evenodd;clip-rule:evenodd;stroke-linejoin:round;stroke-miterlimit:1.41421;"><ellipse cx="629.72" cy="780.56" rx="122.56" ry="26.18" style="fill:#ba54f5;fill-opacity:0.1;"/><path d="M1070.55,683.84c-24.35,20.2 -59,28.56 -92.51,33.84l-5.64,0.86c-58.57,8.74 -118.32,10.52 -177.79,12.28c-165.87,4.91 -332.17,9.81 -497.6,-1.51c-73.16,-5 -148.13,-13.76 -212.25,-43.7l-1.67,-0.79c-0.83,-0.39 -1.66,-0.78 -2.49,-1.19c-11.385,-5.434 -22.29,-11.82 -32.6,-19.09c-18.31,-13.06 -33.43,-29 -41.42,-47.91c-12.52,-29.66 -5.9,-63 8.4,-92c14.3,-29 35.8,-55.12 54.34,-82.43c5.44,-8 10.6,-16.3 15.4,-24.81c30,-53.37 44.88,-115.13 13.43,-166.56c-4.151,-6.557 -8.634,-12.899 -13.43,-19c-7.67,-10 -15.47,-20 -20.74,-31.07c-12.29,-25.76 -9.65,-54.73 -5.17,-82.25c6,-36.59 17.05,-76 51.38,-98.86c35.67,-23.74 86.3,-22.54 130.57,-14c68.83,13.19 132.36,40.8 196.49,65.7c64.13,24.9 131.35,47.58 201.86,50.02c62.26,2.17 134.89,-14 176.23,-56.08c40.15,-40.85 115.6,-43.94 170,-19.27c51.91,23.54 85.48,73.36 83,123.12c-3.16,62.1 -54.93,111.83 -95.9,164.7c-6.81,8.79 -13.33,17.68 -19.28,26.72c-19.42,29.53 -33.15,65 -19.78,96.88c7.5,17.85 21.81,31.47 39.06,43.36c38.65,26.63 92,44.55 116,81.83c20.67,32.16 13.01,75.56 -17.89,101.21Z" style="fill:#ba54f5;fill-opacity:0.1;fill-rule:nonzero;"/><ellipse cx="972.5" cy="704.85" rx="57.01" ry="10.96" style="fill:#ba54f5;"/><ellipse cx="971.55" cy="700.19" rx="6.64" ry="8.69" style="fill:#3f3d56;"/><ellipse cx="971.55" cy="689.57" rx="6.64" ry="8.69" style="fill:#3f3d56;"/><ellipse cx="971.55" cy="678.94" rx="6.64" ry="8.69" style="fill:#3f3d56;"/><ellipse cx="971.55" cy="668.32" rx="6.64" ry="8.69" style="fill:#3f3d56;"/><ellipse cx="971.55" cy="657.7" rx="6.64" ry="8.69" style="fill:#3f3d56;"/><ellipse cx="971.55" cy="647.08" rx="6.64" ry="8.69" style="fill:#3f3d56;"/><ellipse cx="971.55" cy="636.46" rx="6.64" ry="8.69" style="fill:#3f3d56;"/><path d="M996.4,563.78c0.908,-1.153 1.734,-2.37 2.47,-3.64l-17.44,-2.86l18.86,0.14c3.667,-7.953 3.888,-17.079 0.61,-25.2l-25.31,13.15l23.34,-17.15c-5.667,-9.849 -16.199,-15.939 -27.562,-15.939c-17.445,0 -31.8,14.355 -31.8,31.8c0,7.155 2.415,14.105 6.852,19.719c-1.417,1.796 -2.634,3.741 -3.63,5.8l22.64,11.77l-24.14,-8.1c-3.445,10.17 -1.511,21.422 5.13,29.86c-4.404,5.603 -6.8,12.526 -6.8,19.653c0,17.445 14.355,31.8 31.8,31.8c17.445,0 31.8,-14.355 31.8,-31.8c0,-7.127 -2.396,-14.05 -6.8,-19.653c9.051,-11.495 9.051,-27.825 0,-39.32l-0.02,-0.03Z" style="fill:#ba54f5;fill-rule:nonzero;"/><path d="M939.61,583.44c-0.008,7.132 2.392,14.061 6.81,19.66c-4.404,5.603 -6.8,12.526 -6.8,19.653c0,17.445 14.355,31.8 31.8,31.8c17.445,0 31.8,-14.355 31.8,-31.8c0,-7.127 -2.396,-14.05 -6.8,-19.653c4.24,-5.41 -56.81,-23.23 -56.81,-19.66Z" style="fill-opacity:0.1;fill-rule:nonzero;"/><path d="M134.73,673.91c0,5.59 -21.81,10.21 -50,10.87l-1.67,0c-0.83,-0.39 -1.66,-0.78 -2.49,-1.19c-11.373,-5.423 -22.268,-11.796 -32.57,-19.05c6.85,-0.8 14.64,-1.34 23,-1.52l1.13,0c1.82,0 3.67,-0.06 5.54,-0.06l7.05,0c28.2,0.73 50.01,5.41 50.01,10.95Z" style="fill:#ba54f5;fill-rule:nonzero;"/><ellipse cx="76.76" cy="669.25" rx="6.64" ry="8.69" style="fill:#3f3d56;"/><ellipse cx="76.76" cy="658.63" rx="6.64" ry="8.69" style="fill:#3f3d56;"/><ellipse cx="76.76" cy="648.01" rx="6.64" ry="8.69" style="fill:#3f3d56;"/><ellipse cx="76.76" cy="637.39" rx="6.64" ry="8.69" style="fill:#3f3d56;"/><ellipse cx="76.76" cy="626.77" rx="6.64" ry="8.69" style="fill:#3f3d56;"/><ellipse cx="76.76" cy="616.15" rx="6.64" ry="8.69" style="fill:#3f3d56;"/><ellipse cx="76.76" cy="605.52" rx="6.64" ry="8.69" style="fill:#3f3d56;"/><path d="M101.61,532.84c0.908,-1.152 1.737,-2.365 2.48,-3.63l-17.45,-2.84l18.87,0.14c3.658,-7.952 3.876,-17.073 0.6,-25.19l-25.3,13.13l23.34,-17.16c-5.675,-9.822 -16.191,-15.892 -27.535,-15.892c-17.445,0 -31.8,14.355 -31.8,31.8c0,7.135 2.401,14.066 6.815,19.672c-1.411,1.8 -2.628,3.744 -3.63,5.8l22.64,11.7l-24.14,-8.07c-3.43,10.172 -1.498,21.416 5.13,29.86c-4.404,5.603 -6.8,12.526 -6.8,19.653c0,17.445 14.355,31.8 31.8,31.8c17.445,0 31.8,-14.355 31.8,-31.8c0,-7.127 -2.396,-14.05 -6.8,-19.653c9.051,-11.495 9.051,-27.825 0,-39.32l-0.02,0Z" style="fill:#ba54f5;fill-rule:nonzero;"/><path d="M44.83,552.5c-0.012,7.131 2.385,14.06 6.8,19.66c-4.404,5.603 -6.8,12.526 -6.8,19.653c0,17.445 14.355,31.8 31.8,31.8c17.445,0 31.8,-14.355 31.8,-31.8c0,-7.127 -2.396,-14.05 -6.8,-19.653c4.24,-5.41 -56.8,-23.23 -56.8,-19.66Z" style="fill-opacity:0.1;fill-rule:nonzero;"/><g opacity="0.2"><path d="M305.84,555.29c0,0.94 -0.1,1.86 -0.2,2.76c-7.76,-3.12 -15.4,-6.43 -22.92,-9.93c-4,-0.527 -7.722,-2.342 -10.6,-5.17c-2.19,-1.1 -4.37,-2.24 -6.54,-3.39c0.489,-1.034 1.043,-2.036 1.66,-3c4.2,-6.66 10.6,-10.83 17.65,-10.6c7.05,0.23 13.15,4.78 16.93,11.66c2.896,5.424 4.285,11.527 4.02,17.67Z" style="fill:#3f3d56;fill-rule:nonzero;"/><path d="M307,520.37c-0.144,6.126 -1.915,12.104 -5.13,17.32c-4.21,6.64 -10.6,10.81 -17.65,10.58c-0.49,0 -1,-0.06 -1.45,-0.1c-4,-0.527 -7.722,-2.342 -10.6,-5.17c-1.956,-1.85 -3.603,-4 -4.88,-6.37c-5.743,-11.051 -5.326,-24.332 1.1,-35c4.21,-6.66 10.6,-10.83 17.65,-10.6c7.05,0.23 13.15,4.78 16.93,11.66c2.897,5.428 4.289,11.533 4.03,17.68Z" style="fill:#3f3d56;fill-rule:nonzero;"/><path d="M264.344,483.998c0.499,-15.794 10.699,-28.307 22.764,-27.925c12.064,0.381 21.453,13.513 20.954,29.306c-0.499,15.794 -10.699,28.306 -22.763,27.925c-12.064,-0.381 -21.454,-13.513 -20.955,-29.306Z" style="fill:#3f3d56;"/><path d="M265.447,449.024c0.499,-15.794 10.699,-28.307 22.763,-27.925c12.064,0.381 21.454,13.513 20.955,29.306c-0.499,15.794 -10.699,28.306 -22.764,27.925c-12.064,-0.381 -21.453,-13.513 -20.954,-29.306Z" style="fill:#3f3d56;"/><path d="M266.549,414.05c0.499,-15.794 10.699,-28.307 22.763,-27.925c12.065,0.381 21.454,13.513 20.955,29.306c-0.499,15.794 -10.699,28.306 -22.763,27.925c-12.065,-0.381 -21.454,-13.513 -20.955,-29.306Z" style="fill:#3f3d56;"/><path d="M214.12,172.83c-2.863,-3.898 -5.456,-7.987 -7.76,-12.24l57.72,-7.62l-62.08,-1.5c-11.206,-26.564 -10.982,-56.606 0.62,-83l82,45.85l-75.15,-58.95c19.111,-30.642 52.768,-49.317 88.881,-49.317c57.464,0 104.75,47.286 104.75,104.75c0,24.57 -8.645,48.373 -24.411,67.217c4.456,6.063 8.247,12.587 11.31,19.46l-75.77,36.38l80.33,-24.17c10.258,33.846 2.724,70.68 -20,97.78c13.267,18.001 20.428,39.786 20.428,62.148c0,57.464 -47.286,104.75 -104.75,104.75c-57.464,0 -104.75,-47.286 -104.75,-104.75c0,-24.624 8.683,-48.476 24.512,-67.338c-28.585,-38.788 -26.891,-92.539 4.08,-129.45l0.04,0Z" style="fill:#ba54f5;fill-rule:nonzero;"/><path d="M399.05,243.45c-0.707,23.472 -9.322,46.031 -24.44,64c13.258,17.997 20.413,39.774 20.413,62.127c0,57.464 -47.286,104.75 -104.75,104.75c-57.465,0 -104.75,-47.286 -104.75,-104.75c0,-24.605 8.669,-48.441 24.477,-67.297c-13.43,-18.25 189.42,-70.58 189.05,-58.83Z" style="fill-opacity:0.1;fill-rule:nonzero;"/></g><g opacity="0.2"><path d="M798.18,480.51c0,0.67 -0.07,1.32 -0.14,2c-5.54,-2.193 -10.977,-4.547 -16.31,-7.06c-2.847,-0.38 -5.497,-1.671 -7.55,-3.68c-1.55,-0.79 -3.11,-1.6 -4.65,-2.41c0.349,-0.734 0.743,-1.445 1.18,-2.13c3,-4.74 7.54,-7.7 12.56,-7.54c5.02,0.16 9.36,3.4 12.05,8.3c2.049,3.844 3.037,8.167 2.86,12.52Z" style="fill:#3f3d56;fill-rule:nonzero;"/><path d="M799,455.62c-0.1,4.361 -1.36,8.617 -3.65,12.33c-3,4.72 -7.54,7.69 -12.56,7.53l-1,-0.07c-2.847,-0.38 -5.497,-1.671 -7.55,-3.68c-1.387,-1.323 -2.558,-2.854 -3.47,-4.54c-4.074,-7.857 -3.778,-17.293 0.78,-24.88c3,-4.74 7.55,-7.71 12.56,-7.55c5.01,0.16 9.37,3.4 12.05,8.3c2.047,3.859 3.028,8.196 2.84,12.56Z" style="fill:#3f3d56;fill-rule:nonzero;"/><path d="M768.698,429.777c0.355,-11.237 7.612,-20.14 16.196,-19.869c8.583,0.272 15.263,9.615 14.908,20.852c-0.355,11.237 -7.612,20.139 -16.195,19.868c-8.584,-0.271 -15.264,-9.614 -14.909,-20.851Z" style="fill:#3f3d56;"/><path d="M769.475,404.891c0.355,-11.237 7.612,-20.14 16.196,-19.868c8.583,0.271 15.264,9.614 14.909,20.851c-0.355,11.237 -7.612,20.14 -16.196,19.868c-8.583,-0.271 -15.264,-9.614 -14.909,-20.851Z" style="fill:#3f3d56;"/><path d="M770.262,380.006c0.355,-11.237 7.612,-20.14 16.196,-19.869c8.583,0.271 15.264,9.615 14.909,20.851c-0.355,11.237 -7.612,20.14 -16.196,19.869c-8.583,-0.271 -15.264,-9.615 -14.909,-20.851Z" style="fill:#3f3d56;"/><path d="M732.91,208.37c-2.041,-2.771 -3.886,-5.681 -5.52,-8.71l41.08,-5.42l-44.21,-1.07c-7.979,-18.904 -7.823,-40.284 0.43,-59.07l58.31,32.59l-53.4,-41.93c13.568,-21.957 37.608,-35.361 63.419,-35.361c40.897,0 74.55,33.653 74.55,74.55c0,17.59 -6.226,34.626 -17.569,48.071c3.176,4.317 5.878,8.964 8.06,13.86l-53.89,25.89l57.17,-17.2c7.314,24.082 1.956,50.299 -14.22,69.58c9.436,12.808 14.529,28.306 14.529,44.214c0,40.891 -33.649,74.54 -74.54,74.54c-40.892,0 -74.54,-33.649 -74.54,-74.54c0,-17.516 6.174,-34.484 17.431,-47.904c-20.317,-27.601 -19.109,-65.827 2.91,-92.09Z" style="fill:#ba54f5;fill-rule:nonzero;"/><path d="M864.52,258.59c-0.501,16.71 -6.634,32.77 -17.4,45.56c9.436,12.808 14.529,28.306 14.529,44.214c0,40.891 -33.649,74.54 -74.54,74.54c-40.892,0 -74.54,-33.649 -74.54,-74.54c0,-17.516 6.174,-34.484 17.431,-47.904c-9.58,-13 134.78,-50.23 134.52,-41.87Z" style="fill-opacity:0.1;fill-rule:nonzero;"/></g><g opacity="0.2"><path d="M585,402.46c0,0.67 -0.08,1.32 -0.15,2c-5.54,-2.193 -10.977,-4.547 -16.31,-7.06c-2.844,-0.38 -5.491,-1.671 -7.54,-3.68c-1.56,-0.79 -3.11,-1.6 -4.65,-2.41c0.344,-0.734 0.735,-1.446 1.17,-2.13c3,-4.73 7.55,-7.7 12.56,-7.54c5.01,0.16 9.36,3.4 12.05,8.3c2.053,3.844 3.044,8.166 2.87,12.52Z" style="fill:#3f3d56;fill-rule:nonzero;"/><path d="M585.74,377.57c-0.1,4.361 -1.36,8.617 -3.65,12.33c-3,4.72 -7.54,7.69 -12.56,7.53c-0.35,0 -0.68,0 -1,-0.07c-2.844,-0.38 -5.491,-1.671 -7.54,-3.68c-1.393,-1.319 -2.568,-2.852 -3.48,-4.54c-4.077,-7.858 -3.777,-17.297 0.79,-24.88c3,-4.74 7.54,-7.71 12.56,-7.55c5.02,0.16 9.36,3.4 12,8.3c2.062,3.855 3.056,8.192 2.88,12.56Z" style="fill:#3f3d56;fill-rule:nonzero;"/><path d="M554.659,350.808c0.337,-11.243 7.583,-20.161 16.171,-19.903c8.588,0.257 15.286,9.594 14.949,20.836c-0.337,11.243 -7.583,20.161 -16.171,19.904c-8.588,-0.258 -15.286,-9.595 -14.949,-20.837Z" style="fill:#3f3d56;"/><path d="M556.229,326.839c0.355,-11.236 7.612,-20.139 16.196,-19.868c8.583,0.271 15.264,9.614 14.909,20.851c-0.355,11.237 -7.612,20.14 -16.196,19.869c-8.583,-0.272 -15.264,-9.615 -14.909,-20.852Z" style="fill:#3f3d56;"/><path d="M557.027,301.944c0.355,-11.237 7.612,-20.14 16.195,-19.868c8.584,0.271 15.264,9.614 14.909,20.851c-0.355,11.237 -7.612,20.14 -16.195,19.868c-8.584,-0.271 -15.264,-9.614 -14.909,-20.851Z" style="fill:#3f3d56;"/><path d="M519.68,130.28c-2.038,-2.773 -3.882,-5.683 -5.52,-8.71l41.08,-5.42l-44.24,-1.07c-7.981,-18.904 -7.822,-40.287 0.44,-59.07l58.33,32.63l-53.39,-41.93c13.592,-21.835 37.56,-35.148 63.281,-35.148c40.891,0 74.54,33.649 74.54,74.54c0,17.5 -6.163,34.453 -17.401,47.868c3.179,4.317 5.885,8.964 8.07,13.86l-53.87,25.89l57.16,-17.2c7.314,24.082 1.956,50.299 -14.22,69.58c9.414,12.799 14.494,28.279 14.494,44.167c0,40.892 -33.648,74.54 -74.54,74.54c-40.891,0 -74.54,-33.648 -74.54,-74.54c0,-17.513 6.173,-34.478 17.426,-47.897c-20.333,-27.609 -19.129,-65.855 2.9,-92.13l0,0.04Z" style="fill:#ba54f5;fill-rule:nonzero;"/><path d="M651.29,180.54c-0.501,16.71 -6.634,32.77 -17.4,45.56c9.429,12.805 14.518,28.297 14.518,44.199c0,40.891 -33.649,74.54 -74.54,74.54c-40.892,0 -74.54,-33.649 -74.54,-74.54c0,-17.527 6.182,-34.505 17.452,-47.929c-9.59,-12.95 134.77,-50.19 134.51,-41.83Z" style="fill-opacity:0.1;fill-rule:nonzero;"/></g><path d="M972.4,500.81l0,217.73c-58.57,8.74 -118.32,10.52 -177.79,12.28c-165.87,4.91 -332.17,9.81 -497.6,-1.51c-73.16,-5 -148.13,-13.76 -212.25,-43.7l0,-268.24c0.24,-185 -0.76,0 0,-185.56l0,-66.59c0,-7.735 6.365,-14.1 14.1,-14.1l859.44,0c7.735,0 14.1,6.365 14.1,14.1l0,168.63c0.6,166.52 -0.4,0.52 0,166.96Z" style="fill:#3f3d56;fill-opacity:0.8;fill-rule:nonzero;"/><path d="M713.01,222.97c0,-2.881 -2.339,-5.22 -5.22,-5.22l-358.42,0c-2.881,0 -5.22,2.339 -5.22,5.22l0,18.12c0,2.881 2.339,5.22 5.22,5.22l358.42,0c2.881,0 5.22,-2.339 5.22,-5.22l0,-18.12Z" style="fill:#ba54f5;fill-opacity:0.3;"/><path d="M687.94,233.22l-0.61,0l-0.23,-0.19c0.763,-0.911 1.184,-2.061 1.19,-3.25c-0.033,-2.687 -2.252,-4.88 -4.94,-4.88c-2.71,0 -4.94,2.23 -4.94,4.94c0,2.71 2.23,4.94 4.94,4.94c0.007,0 0.013,0 0.02,0c1.184,-0.004 2.33,-0.422 3.24,-1.18l0.22,0.19l0,0.58l3.81,3.82l1.14,-1.14l-3.84,-3.83Zm-4.57,0c-0.003,0 -0.007,0 -0.01,0c-1.887,0 -3.44,-1.553 -3.44,-3.44c0,-1.887 1.553,-3.44 3.44,-3.44c1.887,0 3.44,1.553 3.44,3.44c0,0.007 0,0.013 0,0.02c0,1.876 -1.544,3.42 -3.42,3.42c-0.003,0 -0.007,0 -0.01,0Z" style="fill:#444053;fill-rule:nonzero;"/><path d="M257.26,498.2c0,-2.76 -2.24,-5 -5,-5l-24.42,0c-2.76,0 -5,2.24 -5,5l0,1.9c0,2.76 2.24,5 5,5l24.42,0c2.76,0 5,-2.24 5,-5l0,-1.9Z" style="fill:#3f3d56;fill-opacity:0.7;"/><path d="M276.38,527.95c0,-2.76 -2.24,-5 -5,-5l-43.54,0c-2.76,0 -5,2.24 -5,5l0,1.9c0,2.76 2.24,5 5,5l43.54,0c2.76,0 5,-2.24 5,-5l0,-1.9Z" style="fill:#ba54f5;fill-opacity:0.3;"/><path d="M329.93,513.08c0,-2.76 -2.24,-5 -5,-5l-97.09,0c-2.76,0 -5,2.24 -5,5l0,1.9c0,2.76 2.24,5 5,5l97.09,0c2.76,0 5,-2.24 5,-5l0,-1.9Z" style="fill:#ba54f5;fill-opacity:0.3;"/><path d="M164.57,522.58c-0.02,0 -0.04,0 -0.06,0c-3.13,0 -5.713,2.56 -5.74,5.69c-0.049,2.091 -1.779,3.785 -3.87,3.79c1.87,2.367 4.714,3.765 7.73,3.8c0.027,0 0.054,0 0.08,0c4.178,0 7.627,-3.413 7.67,-7.59c-0.033,-3.132 -2.618,-5.69 -5.75,-5.69c-0.02,0 -0.04,0 -0.06,0Zm26.53,-17.76l-2.6,-2.55c-0.75,-0.737 -1.97,-0.737 -2.72,0l-17.34,17l5.32,5.22l17.32,-17c0.367,-0.351 0.575,-0.837 0.575,-1.345c0,-0.498 -0.2,-0.976 -0.555,-1.325Z" style="fill:#ba54f5;fill-rule:nonzero;"/><path d="M257.26,350.66c0,-2.76 -2.24,-5 -5,-5l-24.42,0c-2.76,0 -5,2.24 -5,5l0,1.9c0,2.76 2.24,5 5,5l24.42,0c2.76,0 5,-2.24 5,-5l0,-1.9Z" style="fill:#3f3d56;fill-opacity:0.7;"/><path d="M276.38,380.41c0,-2.76 -2.24,-5 -5,-5l-43.54,0c-2.76,0 -5,2.24 -5,5l0,1.9c0,2.76 2.24,5 5,5l43.54,0c2.76,0 5,-2.24 5,-5l0,-1.9Z" style="fill:#ba54f5;fill-opacity:0.3;"/><path d="M329.93,365.53c0,-2.76 -2.24,-5 -5,-5l-97.09,0c-2.76,0 -5,2.24 -5,5l0,1.9c0,2.76 2.24,5 5,5l97.09,0c2.76,0 5,-2.24 5,-5l0,-1.9Z" style="fill:#ba54f5;fill-opacity:0.3;"/><path d="M191.18,378.15l-15.18,-15.28c1.536,-4.008 0.548,-8.568 -2.51,-11.58c-3.251,-3.225 -8.191,-4.097 -12.35,-2.18l7.18,7.22l-5,5l-7.32,-7.18c-1.99,4.166 -1.116,9.166 2.17,12.41c2.976,3.071 7.523,4.066 11.51,2.52l15.15,15.29c0.304,0.322 0.727,0.504 1.17,0.504c0.443,0 0.866,-0.182 1.17,-0.504l3.84,-3.86c0.408,-0.282 0.653,-0.747 0.653,-1.243c0,-0.42 -0.175,-0.821 -0.483,-1.107l0,-0.01Z" style="fill:#ba54f5;fill-rule:nonzero;"/><path d="M544.02,498.2c0,-2.76 -2.24,-5 -5,-5l-24.42,0c-2.76,0 -5,2.24 -5,5l0,1.9c0,2.76 2.24,5 5,5l24.42,0c2.76,0 5,-2.24 5,-5l0,-1.9Z" style="fill:#3f3d56;fill-opacity:0.7;"/><path d="M563.14,527.95c0,-2.76 -2.24,-5 -5,-5l-43.54,0c-2.76,0 -5,2.24 -5,5l0,1.9c0,2.76 2.24,5 5,5l43.54,0c2.76,0 5,-2.24 5,-5l0,-1.9Z" style="fill:#ba54f5;fill-opacity:0.3;"/><path d="M616.69,513.08c0,-2.76 -2.24,-5 -5,-5l-97.09,0c-2.76,0 -5,2.24 -5,5l0,1.9c0,2.76 2.24,5 5,5l97.09,0c2.76,0 5,-2.24 5,-5l0,-1.9Z" style="fill:#ba54f5;fill-opacity:0.3;"/><path d="M459.44,526c-3.062,1.742 -6.828,1.742 -9.89,0c-3.87,1.19 -6.24,5.09 -7.12,8.54l24.12,0c-0.87,-3.45 -3.23,-7.35 -7.11,-8.54Zm-4.94,-18.37c-4.767,0 -8.69,3.923 -8.69,8.69c0,4.767 3.923,8.69 8.69,8.69c4.767,0 8.69,-3.923 8.69,-8.69c0,-0.003 0,-0.007 0,-0.01c-0.005,-4.763 -3.927,-8.68 -8.69,-8.68Zm0,15.3c-2.661,-0.051 -5.051,-1.681 -6.07,-4.14l12.14,0c-1.019,2.459 -3.409,4.089 -6.07,4.14Z" style="fill:#ba54f5;fill-rule:nonzero;"/><path d="M472.09,521.37c-2.563,1.446 -5.635,1.699 -8.4,0.69c-0.615,1.066 -1.391,2.03 -2.3,2.86c2.026,0.926 3.732,2.433 4.9,4.33l12.91,0c-0.811,-3.694 -3.519,-6.695 -7.11,-7.88Zm-4.94,-18.38c-2.962,-0.001 -5.728,1.509 -7.33,4c2.653,1.538 4.528,4.137 5.15,7.14l8.25,0c-1.027,2.449 -3.414,4.07 -6.07,4.12c-0.71,-0.003 -1.415,-0.131 -2.08,-0.38c-0.116,0.705 -0.297,1.398 -0.54,2.07c0.846,0.272 1.731,0.407 2.62,0.4c4.767,0 8.69,-3.923 8.69,-8.69c0,-4.767 -3.923,-8.69 -8.69,-8.69l0,0.03Z" style="fill:#ba54f5;fill-rule:nonzero;"/><path d="M257.26,608.86c0,-2.76 -2.24,-5 -5,-5l-24.42,0c-2.76,0 -5,2.24 -5,5l0,1.9c0,2.76 2.24,5 5,5l24.42,0c2.76,0 5,-2.24 5,-5l0,-1.9Z" style="fill:#3f3d56;fill-opacity:0.7;"/><path d="M276.38,638.61c0,-2.76 -2.24,-5 -5,-5l-43.54,0c-2.76,0 -5,2.24 -5,5l0,1.9c0,2.76 2.24,5 5,5l43.54,0c2.76,0 5,-2.24 5,-5l0,-1.9Z" style="fill:#ba54f5;fill-opacity:0.3;"/><path d="M329.93,623.74c0,-2.76 -2.24,-5 -5,-5l-97.09,0c-2.76,0 -5,2.24 -5,5l0,1.9c0,2.76 2.24,5 5,5l97.09,0c2.76,0 5,-2.24 5,-5l0,-1.9Z" style="fill:#ba54f5;fill-opacity:0.3;"/><path d="M176.57,607.62l-9.82,0c-0.013,0 -0.027,0 -0.04,0c-1.785,0 -3.258,1.456 -3.28,3.24l0,0.7l-0.62,0c-0.013,0 -0.027,0 -0.04,0c-1.785,0 -3.258,1.456 -3.28,3.24l0,23.63c0.011,1.817 1.503,3.309 3.32,3.32l17.08,0c1.779,-0.022 3.23,-1.491 3.23,-3.27c0,-0.017 0,-0.033 0,-0.05l0,-0.62l0.71,0c1.779,-0.022 3.23,-1.491 3.23,-3.27c0,-0.017 0,-0.033 0,-0.05l0,-16.37l-10.49,-10.5Zm0,3.66l6.84,6.84l-6.84,0l0,-6.84Zm3.94,27.15c0.017,0.361 -0.26,0.673 -0.62,0.7l-17.08,0c-0.374,-0.02 -0.675,-0.326 -0.69,-0.7l0,-23.63c0.026,-0.356 0.333,-0.632 0.69,-0.62l0.62,0l0,21c0,1.82 0.86,2.66 2.67,2.66l14.41,0l0,0.59Zm3.93,-3.94c0.023,0.359 -0.252,0.673 -0.61,0.7l-17.08,0c-0.374,-0.02 -0.675,-0.326 -0.69,-0.7l0,-23.63c0.026,-0.356 0.333,-0.632 0.69,-0.62l7.19,0l0,10.51l10.5,0l0,13.74Z" style="fill:#ba54f5;fill-rule:nonzero;"/><path d="M544.02,350.66c0,-2.76 -2.24,-5 -5,-5l-24.42,0c-2.76,0 -5,2.24 -5,5l0,1.9c0,2.76 2.24,5 5,5l24.42,0c2.76,0 5,-2.24 5,-5l0,-1.9Z" style="fill:#3f3d56;fill-opacity:0.7;"/><path d="M563.14,380.41c0,-2.76 -2.24,-5 -5,-5l-43.54,0c-2.76,0 -5,2.24 -5,5l0,1.9c0,2.76 2.24,5 5,5l43.54,0c2.76,0 5,-2.24 5,-5l0,-1.9Z" style="fill:#ba54f5;fill-opacity:0.3;"/><path d="M616.69,365.53c0,-2.76 -2.24,-5 -5,-5l-97.09,0c-2.76,0 -5,2.24 -5,5l0,1.9c0,2.76 2.24,5 5,5l97.09,0c2.76,0 5,-2.24 5,-5l0,-1.9Z" style="fill:#ba54f5;fill-opacity:0.3;"/><path d="M457.32,353.37l-11.38,0c-1.922,0.005 -3.5,1.588 -3.5,3.51l0,19.25c0,1.92 1.58,3.5 3.5,3.5l29.76,0c1.92,0 3.5,-1.58 3.5,-3.5l0,-15.34c-0.005,-1.918 -1.582,-3.495 -3.5,-3.5l-14.88,0l-3.5,-3.94l0,0.02Z" style="fill:#ba54f5;fill-rule:nonzero;"/><path d="M827.21,498.2c0,-2.76 -2.24,-5 -5,-5l-24.42,0c-2.76,0 -5,2.24 -5,5l0,1.9c0,2.76 2.24,5 5,5l24.42,0c2.76,0 5,-2.24 5,-5l0,-1.9Z" style="fill:#3f3d56;fill-opacity:0.7;"/><path d="M846.33,527.95c0,-2.76 -2.24,-5 -5,-5l-43.54,0c-2.76,0 -5,2.24 -5,5l0,1.9c0,2.76 2.24,5 5,5l43.54,0c2.76,0 5,-2.24 5,-5l0,-1.9Z" style="fill:#ba54f5;fill-opacity:0.3;"/><path d="M899.88,513.08c0,-2.76 -2.24,-5 -5,-5l-97.09,0c-2.76,0 -5,2.24 -5,5l0,1.9c0,2.76 2.24,5 5,5l97.09,0c2.76,0 5,-2.24 5,-5l0,-1.9Z" style="fill:#ba54f5;fill-opacity:0.3;"/><path d="M762.93,509.28l-6.77,-0.32l-0.4,-4.41c-0.087,-0.864 -0.823,-1.53 -1.692,-1.53c-0.062,0 -0.125,0.003 -0.188,0.01l-24.27,2c-0.887,0.04 -1.594,0.781 -1.594,1.668c0,0.041 0.001,0.081 0.004,0.122l1.73,19.35c0.109,0.923 0.956,1.595 1.88,1.49l1.23,-0.09l-0.19,3.76c-0.001,0.02 -0.001,0.04 -0.001,0.06c0,1.012 0.82,1.849 1.831,1.87l27.09,1.28c1.025,0.068 1.926,-0.715 2,-1.74l1.14,-21.6c0.001,-0.02 0.001,-0.041 0.001,-0.061c0,-0.998 -0.803,-1.827 -1.801,-1.859Zm-29.12,0.44l-0.58,11.06l-1.44,2l-1.32,-14.61l0,-0.09c0.052,-0.404 0.375,-0.723 0.78,-0.77l21.42,-1.75c0.409,-0.039 0.786,0.238 0.87,0.64c0.084,0.402 0,0 0,0l0.21,2.52l-18,-0.86c-0.013,0 -0.027,0 -0.04,0c-1.028,0 -1.879,0.833 -1.9,1.86Zm27.4,19.44l-7,-8.17l-3.07,2.82l-5.67,-6.63l-10.07,10.72l0.86,-16.33c0.099,-0.461 0.53,-0.781 1,-0.74l23.9,1.16c0.455,0.01 0.829,0.375 0.85,0.83c0.021,0.455 0,0 0,0l-0.8,16.34Z" style="fill:#ba54f5;fill-rule:nonzero;"/><path d="M756.89,518.79c0.003,0 0.007,0 0.01,0c1.443,0 2.63,-1.187 2.63,-2.63c0,-1.443 -1.187,-2.63 -2.63,-2.63c-1.443,0 -2.63,1.187 -2.63,2.63c0.005,1.437 1.183,2.619 2.62,2.63Z" style="fill:#ba54f5;fill-rule:nonzero;"/><path d="M829.59,350.66c0,-2.76 -2.24,-5 -5,-5l-24.42,0c-2.76,0 -5,2.24 -5,5l0,1.9c0,2.76 2.24,5 5,5l24.42,0c2.76,0 5,-2.24 5,-5l0,-1.9Z" style="fill:#3f3d56;fill-opacity:0.7;"/><path d="M848.71,380.41c0,-2.76 -2.24,-5 -5,-5l-43.54,0c-2.76,0 -5,2.24 -5,5l0,1.9c0,2.76 2.24,5 5,5l43.54,0c2.76,0 5,-2.24 5,-5l0,-1.9Z" style="fill:#ba54f5;fill-opacity:0.3;"/><path d="M902.26,365.53c0,-2.76 -2.24,-5 -5,-5l-97.09,0c-2.76,0 -5,2.24 -5,5l0,1.9c0,2.76 2.24,5 5,5l97.09,0c2.76,0 5,-2.24 5,-5l0,-1.9Z" style="fill:#ba54f5;fill-opacity:0.3;"/><circle cx="762.56" cy="356.63" r="5.25" style="fill:#ba54f5;"/><path d="M758.53,362.82l-10.42,6.94l-14.44,-9.62l0,-3.51l14.44,9.63l8.3,-5.53c-1.596,-2.412 -1.635,-5.549 -0.1,-8l-23.07,0c-1.923,0.005 -3.505,1.587 -3.51,3.51l0,21.88c0.005,1.923 1.587,3.505 3.51,3.51l29.76,0c1.922,-0.005 3.5,-1.588 3.5,-3.51l0,-15.2c-2.442,1.552 -5.582,1.529 -8,-0.06l0.03,-0.04Z" style="fill:#ba54f5;fill-rule:nonzero;"/><ellipse cx="509.64" cy="746.02" rx="26.08" ry="5.01" style="fill:#ba54f5;"/><ellipse cx="509.21" cy="743.89" rx="3.04" ry="3.97" style="fill:#3f3d56;"/><ellipse cx="509.21" cy="739.03" rx="3.04" ry="3.97" style="fill:#3f3d56;"/><ellipse cx="509.21" cy="734.17" rx="3.04" ry="3.97" style="fill:#3f3d56;"/><ellipse cx="509.21" cy="729.31" rx="3.04" ry="3.97" style="fill:#3f3d56;"/><ellipse cx="509.21" cy="724.46" rx="3.04" ry="3.97" style="fill:#3f3d56;"/><ellipse cx="509.21" cy="719.6" rx="3.04" ry="3.97" style="fill:#3f3d56;"/><ellipse cx="509.21" cy="714.74" rx="3.04" ry="3.97" style="fill:#3f3d56;"/><path d="M520.57,681.5c0.418,-0.528 0.795,-1.086 1.13,-1.67l-8,-1.31l8.62,0.07c1.669,-3.637 1.771,-7.806 0.28,-11.52l-11.57,6l10.67,-7.85c-2.591,-4.503 -7.407,-7.288 -12.603,-7.288c-7.976,0 -14.54,6.563 -14.54,14.54c0,3.277 1.108,6.459 3.143,9.028c-0.643,0.824 -1.2,1.712 -1.66,2.65l10.36,5.38l-11,-3.7c-1.576,4.648 -0.695,9.792 2.34,13.65c-2.014,2.562 -3.11,5.728 -3.11,8.987c0,7.976 6.564,14.54 14.54,14.54c7.976,0 14.54,-6.564 14.54,-14.54c0,-3.259 -1.096,-6.425 -3.11,-8.987c4.143,-5.262 4.143,-12.738 0,-18l-0.03,0.02Z" style="fill:#ba54f5;fill-rule:nonzero;"/><path d="M494.6,690.49c-0.01,3.265 1.087,6.438 3.11,9c-2.014,2.562 -3.11,5.728 -3.11,8.987c0,7.976 6.564,14.54 14.54,14.54c7.976,0 14.54,-6.564 14.54,-14.54c0,-3.259 -1.096,-6.425 -3.11,-8.987c1.95,-2.48 -25.97,-10.63 -25.97,-9Z" style="fill-opacity:0.1;fill-rule:nonzero;"/><path d="M752,390.23c-0.427,-0.862 -0.763,-1.767 -1,-2.7c-0.1,-1.07 0.32,-2.48 -0.63,-3c-0.53,-0.29 -1.27,-0.07 -1.74,-0.45c-0.29,-0.338 -0.468,-0.757 -0.51,-1.2c-0.477,-1.716 -2.02,-2.935 -3.8,-3c1,-2.71 4.68,-3.37 6.3,-5.76c0.81,-1.19 0.55,-3.38 -0.88,-3.39c-0.347,0.013 -0.688,0.098 -1,0.25l-5.33,2.2c-1.027,0.402 -2.029,0.867 -3,1.39c-2.93,1.67 -5.12,4.38 -7.09,7.13c-1.863,2.43 -3.35,5.127 -4.41,8c-0.596,1.77 -0.913,3.622 -0.94,5.49c0,0.19 0,0.38 0,0.56c-0.87,0.15 -1.58,0.53 -2.49,0.71l-2.07,5.47c-0.274,0.914 -0.733,1.762 -1.35,2.49c-0.458,0.419 -0.946,0.803 -1.46,1.15c-2.131,1.82 -3.223,4.585 -2.91,7.37c-3.863,1.517 -5.915,5.824 -4.66,9.78c-3.154,0.682 -5.736,2.957 -6.81,6c-0.143,0.688 -0.448,1.333 -0.89,1.88c-0.676,0.52 -1.518,0.779 -2.37,0.73c-2.34,0.15 -4.38,2 -6.49,1c-2.403,-1.126 -5.09,-1.503 -7.71,-1.08c-0.54,0.129 -1.096,0.18 -1.65,0.15c-0.472,-0.083 -0.928,-0.241 -1.35,-0.47c-0.95,-0.562 -1.983,-0.971 -3.06,-1.21c-1.101,-0.235 -2.243,0.205 -2.9,1.12c-0.74,-0.81 -1.18,-1.86 -1.85,-2.73c-0.612,-0.942 -1.703,-1.464 -2.82,-1.35c0.7,-0.63 0,-1.89 -0.93,-2.11c-0.937,-0.081 -1.881,-0.048 -2.81,0.1c-2.44,0 -4.32,-2.24 -6.69,-2.83c-2.18,-0.53 -5.09,0.11 -6.21,-1.85c-0.35,-0.63 -0.45,-1.45 -1,-1.92c-0.125,-0.53 -0.368,-1.026 -0.71,-1.45c-0.9,-1 -2.41,-1.16 -3.76,-1.12c-1.485,0.042 -2.956,0.294 -4.37,0.75c0,-0.17 -0.09,-0.36 -0.15,-0.56c-0.856,-2.492 -2.573,-4.598 -4.84,-5.94c-1.76,-1.038 -3.669,-1.8 -5.66,-2.26c0,-0.18 0,-0.35 0,-0.53c-0.032,-2.524 0.36,-5.036 1.16,-7.43c0.08,-0.26 0.18,-0.52 0.27,-0.78c11.671,-3.049 19.876,-13.674 19.876,-25.736c0,-7.094 -2.837,-13.901 -7.876,-18.894c-0.007,-0.54 -0.077,-1.077 -0.21,-1.6c-0.292,-1.147 -0.839,-2.214 -1.6,-3.12c-1.22,-2.72 -3.12,-3.92 -5.55,-5.06c-0.7,-0.33 -1.44,-0.65 -2.22,-1c-3.87,-1.74 -7.61,-4.3 -12,-4.29c-4,0 -7.86,2.21 -11.82,2.13l-0.3,0l-0.29,0l-0.36,0c-1.11,-0.13 -2.44,-0.39 -3.17,0.46c-0.235,0.336 -0.424,0.703 -0.56,1.09c-0.057,0.128 -0.124,0.252 -0.2,0.37c-0.147,0.246 -0.318,0.477 -0.51,0.69c-1.28,1.4 -3.43,2 -5.2,2.94c-4,2.05 -6.62,6.23 -7.66,10.61c-1.04,4.38 -0.68,9 0.1,13.44c0.4,2.22 1.26,4.74 2.84,6.14c1.58,1.4 -13.37,9.51 -10.93,10.86c1.33,0.74 6.87,-2.77 11.64,-6.12c0.05,0.2 0.09,0.41 0.15,0.61c0.569,2.135 1.297,4.224 2.18,6.25c1,2.39 2.44,5 4.93,5.69c0.55,0.153 1.12,0.217 1.69,0.19l0.44,0c0.124,3.659 -0.263,7.318 -1.15,10.87c-1.45,-0.083 -2.888,0.314 -4.09,1.13c-0.456,0.448 -1.033,0.754 -1.66,0.88c-0.648,-0.079 -1.251,-0.375 -1.71,-0.84c-3.682,-2.654 -8.758,-2.386 -12.14,0.64c-4.84,4.57 -4.29,13.49 -10,16.95c-1.56,0.95 -3.56,1.46 -4.48,3.05c-0.221,0.508 -0.478,0.999 -0.77,1.47c-0.378,0.425 -0.841,0.766 -1.36,1c-1.648,0.738 -3.216,1.643 -4.68,2.7c-1.478,1.083 -2.45,2.724 -2.69,4.54c-0.021,1.316 0.259,2.619 0.82,3.81c0.852,2.092 1.896,4.101 3.12,6c-0.664,0.86 -1.098,1.875 -1.26,2.95c-0.4,2.81 0.94,5.58 1.09,8.42c0.13,2.48 -0.66,4.9 -1.1,7.34c-1.76,9.54 1.61,19.2 5,28.26c0.654,1.473 1.06,3.044 1.2,4.65c0.09,3 -1.6,5.67 -2.07,8.59c-1,6.14 3.53,11.92 3.63,18.13c0,2.87 -0.86,5.78 -0.14,8.55c0.47,1.85 1.62,3.44 2.44,5.17c1.44,3.06 1.83,6.53 3.21,9.62c1.65,3.363 4.094,6.273 7.12,8.48c1.73,5.49 -0.73,12.12 0,18c0.94,-0.373 1.89,-0.707 2.85,-1c-0.596,8.738 1.612,17.442 6.3,24.84c1.55,2.42 3.37,4.68 4.54,7.31c0.76,1.874 1.352,3.812 1.77,5.79c1.673,6.98 3.34,13.953 5,20.92c1.36,5.65 2.73,11.4 2.32,17.2c-0.28,4 -1.3,8.57 1.18,11.77c0.597,0.608 1.099,1.303 1.49,2.06c0.24,0.891 0.24,1.829 0,2.72c-1.213,6.744 -2.041,13.552 -2.48,20.39c-0.56,0.75 -1.12,1.51 -1.63,2.26c-4.11,6 -6.09,13.21 -7.69,20.32c-2.949,13.97 -4.676,28.17 -5.16,42.44c-2.058,1.868 -3.83,4.027 -5.26,6.41c-2.15,4 -2.43,8.7 -2.66,13.24c-0.092,0.735 -0.01,1.482 0.24,2.18c0.548,0.785 1.333,1.374 2.24,1.68l1.24,0.59c-0.27,1 -0.51,2 -0.72,3.05c-1.58,-1.78 -4.39,-4.6 -4.87,-2.54c-1.58,6.892 -2.438,13.93 -2.56,21c-0.024,0.118 -0.037,0.238 -0.037,0.358c0,0.971 0.799,1.77 1.77,1.77c0.056,0 0.112,-0.003 0.167,-0.008c6.869,1.217 13.834,1.812 20.81,1.78c5.65,0 11.29,-0.46 16.92,-0.89l5.77,-0.44c5.934,-0.318 11.838,-1.05 17.67,-2.19c2.55,-0.56 5.18,-1.35 7.1,-3.14c1.92,-1.79 2.86,-4.85 1.54,-7.12c-1.61,-2.74 -5.37,-2.94 -8.51,-3.38c-3.112,-0.437 -6.128,-1.397 -8.92,-2.84c-0.63,-0.32 -1.24,-0.68 -1.85,-1c0.16,0 0.33,-0.08 0.48,-0.14c2.7,-0.91 4.85,-3 7.39,-4.25c3,-1.45 6.31,-1.78 9.57,-2.19c3.26,-0.41 6.62,-1 9.33,-2.86c2.54,-1.74 4.34,-4.91 3.75,-7.89c-0.04,-0.21 -0.094,-0.417 -0.16,-0.62c-1,-3.23 -4.5,-5 -7.76,-5.8c-3.26,-0.8 -6.8,-1.28 -9.44,-3.38l-0.39,-0.31c-0.22,-0.19 -0.45,-0.37 -0.69,-0.56c0.582,-0.983 0.851,-2.12 0.77,-3.26c-0.14,-1.79 -1.18,-3.37 -1.89,-5c-1.39,-3.25 -1.5,-6.88 -1.88,-10.39c-0.94,-8.83 -3.65,-17.35 -5.69,-26c-0.23,-1 -0.45,-2 -0.67,-3c1.991,-4.134 4.429,-8.037 7.27,-11.64c3.251,-4.062 5.634,-8.749 7,-13.77c0.42,-1.54 0.73,-3.1 1.05,-4.67c3.613,-18.06 7.027,-36.15 10.24,-54.27c0.531,-2.582 0.836,-5.205 0.91,-7.84c0.841,-2.389 1.297,-4.897 1.35,-7.43c0.94,-3.67 1.89,-7.52 1.12,-9.92c-0.54,-1.7 -0.81,-7.51 -1.11,-13.08c0.086,-2.987 -0.095,-5.975 -0.54,-8.93c-0.09,-0.51 -0.19,-1 -0.3,-1.51c-0.06,-0.3 -0.12,-0.55 -0.18,-0.75c-0.422,-1.675 -1.011,-3.303 -1.76,-4.86c-0.382,-0.931 -0.823,-1.836 -1.32,-2.71c-0.297,-0.517 -0.631,-1.011 -1,-1.48c2.082,0.089 4.158,0.282 6.22,0.58c0.5,0.07 1.12,0.11 1.43,-0.3c0.129,-0.235 0.191,-0.502 0.18,-0.77c0.097,-2.36 -0.464,-4.7 -1.62,-6.76c-0.8,-1.42 -1.91,-2.8 -1.88,-4.43c0.054,-0.76 0.24,-1.504 0.55,-2.2l2.77,-7.44c2.35,-6.29 1.23,-13.58 2.45,-20.18c0.952,-5.157 1.56,-10.372 1.82,-15.61c0.23,-4.47 0.09,-9.32 -2.6,-12.9c-0.776,-0.864 -1.448,-1.818 -2,-2.84c-0.391,-1.085 -0.554,-2.239 -0.48,-3.39c-0.047,-7.007 0.093,-14.007 0.42,-21c11.776,-0.331 23.502,-1.669 35.05,-4c1.364,-0.233 2.704,-0.595 4,-1.08c1.428,-0.684 2.77,-1.533 4,-2.53c3.93,-2.84 7.92,-5.73 10.91,-9.55c3.551,-4.633 5.784,-10.142 6.46,-15.94c2.84,-2.63 4.35,-6.37 5.77,-10c0.702,-1.534 1.148,-3.172 1.32,-4.85c0.07,-1.72 -1.06,-3.52 -0.74,-5.21c0.546,-2.911 2.015,-5.57 4.19,-7.58c0.463,-0.329 0.813,-0.794 1,-1.33c0.064,-0.447 -0.017,-0.902 -0.23,-1.3l-0.09,-0.15c0.28,-0.17 0.54,-0.35 0.81,-0.53c0.93,-0.66 1.82,-1.39 2.69,-2.1c1.33,-1.003 2.506,-2.195 3.49,-3.54c0.982,-1.354 1.325,-3.072 0.94,-4.7Zm-128.31,383.29c-0.24,0 -0.48,0 -0.71,0.06c-0.876,0.125 -1.731,0.37 -2.54,0.73l-0.19,0.1c1.1,-2.38 2.14,-4.8 3.08,-7.26c0.11,-0.29 0.21,-0.58 0.32,-0.88l-0.12,1.64c-0.208,1.868 -0.154,3.757 0.16,5.61Z" style="fill:url(#_Linear1);fill-rule:nonzero;"/><path d="M638,409.1c0.1,3.88 1.42,7.64 1.62,11.52c-11.43,0.57 -22.72,-5 -34,-3.28c3.17,-2.05 4.86,-5.74 5.86,-9.37c1.267,-4.692 1.643,-9.58 1.11,-14.41c-0.031,-0.266 -0.077,-0.53 -0.14,-0.79c-0.42,-1.9 -1.51,-4.59 -1.22,-6.08c0.39,-2 2.25,-1.59 3.93,-1.48c5.117,0.406 10.211,1.074 15.26,2c1.32,0.23 14.13,3.43 14.33,3.1c-2.251,3.602 -4.112,7.433 -5.55,11.43c-0.81,2.369 -1.216,4.857 -1.2,7.36Z" style="fill:#ee8e9e;fill-rule:nonzero;"/><path d="M751.05,397.1c-0.981,1.341 -2.157,2.527 -3.49,3.52c-0.87,0.71 -1.76,1.44 -2.69,2.09c-1.658,1.284 -3.637,2.089 -5.72,2.33c-2.72,0.18 -8.51,-1.42 -10.2,-3.75c-0.723,-1.171 -1.072,-2.535 -1,-3.91c0.028,-1.858 0.345,-3.7 0.94,-5.46c1.059,-2.873 2.546,-5.571 4.41,-8c2,-2.74 4.16,-5.43 7.09,-7.09c0.971,-0.523 1.973,-0.988 3,-1.39l5.33,-2.18c0.312,-0.155 0.652,-0.244 1,-0.26c1.43,0 1.69,2.2 0.88,3.38c-1.62,2.38 -5.27,3 -6.3,5.73c1.768,0.056 3.308,1.251 3.8,2.95c0.041,0.44 0.22,0.857 0.51,1.19c0.47,0.37 1.21,0.16 1.74,0.45c0.95,0.5 0.53,1.91 0.63,3c0.237,0.926 0.573,1.825 1,2.68c0.403,1.632 0.062,3.362 -0.93,4.72Z" style="fill:#ee8e9e;fill-rule:nonzero;"/><path d="M593.4,786.45c0.88,-0.88 2.32,-0.73 3.55,-0.54c6.6,1.041 13.269,1.579 19.95,1.61c0.84,-4.08 -1.59,-8 -2.37,-12.14c-0.113,-1.061 -0.382,-2.099 -0.8,-3.08c-0.94,-1.8 -3.06,-2.63 -5.05,-3c-3.59,-0.76 -9.21,-2.09 -11.22,1.54c-2.41,4.31 -3.18,10.75 -4.06,15.61Z" style="fill:#65617d;fill-rule:nonzero;"/><path d="M666.49,771.02c-2.71,1.85 -6.07,2.42 -9.33,2.84c-3.26,0.42 -6.61,0.74 -9.57,2.19c-2.54,1.26 -4.69,3.32 -7.39,4.22c-2.505,0.69 -5.145,0.731 -7.67,0.12c-3,-0.57 -6.26,-1.67 -7.89,-4.29c-1.46,-2.32 -1.31,-5.27 -1.11,-8c0.24,-3.09 0.47,-6.2 0.69,-9.3c-0.01,-0.785 0.19,-1.559 0.58,-2.24c2.19,-3.2 7.52,1.33 10.37,1.33c4.52,0 9.37,-2.46 12.62,-5.45c0.291,-0.299 0.629,-0.549 1,-0.74c1.29,-0.58 2.58,0.49 3.72,1.42l0.39,0.31c2.64,2.09 6.18,2.52 9.44,3.37c3.26,0.85 6.75,2.55 7.76,5.77c0.067,0.199 0.121,0.403 0.16,0.61c0.57,2.95 -1.26,6.1 -3.77,7.84Z" style="fill:#3f3d56;fill-rule:nonzero;"/><path d="M666.49,771.02c-2.71,1.85 -6.07,2.42 -9.33,2.84c-3.26,0.42 -6.61,0.74 -9.57,2.19c-2.54,1.26 -4.69,3.32 -7.39,4.22c-2.505,0.69 -5.145,0.731 -7.67,0.12c-3,-0.57 -6.26,-1.67 -7.89,-4.29c-1.46,-2.32 -1.31,-5.27 -1.11,-8c0.24,-3.09 0.47,-6.2 0.69,-9.3c-0.01,-0.785 0.19,-1.559 0.58,-2.24c2.19,-3.2 7.52,1.33 10.37,1.33c4.52,0 9.37,-2.46 12.62,-5.45c0.291,-0.299 0.629,-0.549 1,-0.74c1.29,-0.58 2.58,0.49 3.72,1.42l0.39,0.31c2.64,2.09 6.18,2.52 9.44,3.37c3.26,0.85 6.75,2.55 7.76,5.77c0.067,0.199 0.121,0.403 0.16,0.61c0.57,2.95 -1.26,6.1 -3.77,7.84Z" style="fill:#434175;fill-rule:nonzero;"/><path d="M666.49,772.06c-2.71,1.85 -6.07,2.43 -9.33,2.85c-3.26,0.42 -6.61,0.73 -9.57,2.18c-2.54,1.26 -4.69,3.32 -7.39,4.22c-2.505,0.69 -5.145,0.731 -7.67,0.12c-3.225,-0.676 -6.059,-2.591 -7.89,-5.33c-1.46,-2.32 -1.31,-5.27 -1.11,-8c0.24,-3.09 0.47,-6.2 0.69,-9.3c-0.01,-0.785 0.19,-1.559 0.58,-2.24c2.19,-3.2 7.52,1.33 10.37,1.33c4.52,0 9.37,-2.46 12.62,-5.45c0.291,-0.299 0.629,-0.549 1,-0.74c1.29,-0.58 2.58,0.49 3.72,1.42c-0.748,2.323 -1.815,4.53 -3.17,6.56c-2.218,3.478 -5.899,5.768 -10,6.22c-2,0.15 -4.09,-0.25 -6,0.27c-1.91,0.52 -3.77,2.52 -3.08,4.42c0.69,1.9 3.06,2.25 5,2.36c2.749,0.316 5.533,0.119 8.21,-0.58c1.6,-0.53 3.07,-1.41 4.62,-2.06c6.62,-2.74 15,-1.21 20.46,-5.85c0.521,-0.471 1.08,-0.899 1.67,-1.28c1.45,2.99 -1.22,7.19 -3.73,8.88Z" style="fill:#e8eaf2;fill-rule:nonzero;"/><path d="M666.49,772.06c-2.71,1.85 -6.07,2.43 -9.33,2.85c-3.26,0.42 -6.61,0.73 -9.57,2.18c-2.54,1.26 -4.69,3.32 -7.39,4.22c-2.505,0.69 -5.145,0.731 -7.67,0.12c-3.225,-0.676 -6.059,-2.591 -7.89,-5.33c-1.46,-2.32 -1.31,-5.27 -1.11,-8c0.24,-3.09 0.47,-6.2 0.69,-9.3c-0.01,-0.785 0.19,-1.559 0.58,-2.24c2.19,-3.2 7.52,1.33 10.37,1.33c4.52,0 9.37,-2.46 12.62,-5.45c0.291,-0.299 0.629,-0.549 1,-0.74c1.29,-0.58 2.58,0.49 3.72,1.42c-0.748,2.323 -1.815,4.53 -3.17,6.56c-2.218,3.478 -5.899,5.768 -10,6.22c-2,0.15 -4.09,-0.25 -6,0.27c-1.91,0.52 -3.77,2.52 -3.08,4.42c0.69,1.9 3.06,2.25 5,2.36c2.749,0.316 5.533,0.119 8.21,-0.58c1.6,-0.53 3.07,-1.41 4.62,-2.06c6.62,-2.74 15,-1.21 20.46,-5.85c0.521,-0.471 1.08,-0.899 1.67,-1.28c1.45,2.99 -1.22,7.19 -3.73,8.88Z" style="fill-opacity:0.05;fill-rule:nonzero;"/><path d="M594.64,569.44c-2.093,10.342 -0.091,21.102 5.58,30c1.55,2.4 3.37,4.66 4.54,7.27c0.761,1.867 1.353,3.798 1.77,5.77l5,20.8c1.36,5.62 2.73,11.34 2.32,17.11c-0.28,4 -1.3,8.53 1.18,11.71c0.597,0.605 1.099,1.296 1.49,2.05c0.24,0.884 0.24,1.816 0,2.7c-2.54,15.11 -4.43,30.9 0.16,45.51c4.17,13.25 4.41,27.93 7.95,41.35c0.286,1.705 1.045,3.295 2.19,4.59c0.949,0.792 2.085,1.329 3.3,1.56c5.22,1.25 10.73,-0.21 15.59,-2.46c3.42,-1.59 7.1,-4.37 6.81,-8.12c-0.14,-1.79 -1.18,-3.36 -1.89,-5c-1.39,-3.23 -1.5,-6.83 -1.88,-10.33c-0.94,-8.78 -3.65,-17.26 -5.69,-25.84c-2.04,-8.58 -3.44,-17.57 -1.71,-26.23c3.542,-17.909 9.205,-35.332 16.87,-51.9c0.336,-0.88 0.866,-1.673 1.55,-2.32c0.768,-0.438 1.5,-0.937 2.19,-1.49c0.529,-0.822 0.87,-1.751 1,-2.72c0.76,-2.74 3,-4.77 4.53,-7.17c3.83,-6.08 2.62,-13.87 2.48,-21.05c-0.14,-7 0.86,-14 -0.28,-20.92c-1.14,-6.92 -5.04,-13.94 -11.69,-16.06c-3.29,-1.07 -6.85,-0.82 -10.29,-0.48c-18.23,1.8 -35.95,5.11 -53.07,11.67Z" style="fill:#696791;fill-rule:nonzero;"/><path d="M594.64,570.44c-2.093,10.342 -0.091,21.102 5.58,30c1.55,2.4 3.37,4.66 4.54,7.27c0.761,1.867 1.353,3.798 1.77,5.77l5,20.8c1.36,5.62 2.73,11.34 2.32,17.11c-0.28,4 -1.3,8.53 1.18,11.71c0.597,0.605 1.099,1.296 1.49,2.05c0.24,0.884 0.24,1.816 0,2.7c-2.54,15.11 -4.43,30.9 0.16,45.51c4.17,13.25 4.41,27.93 7.95,41.35c0.286,1.705 1.045,3.295 2.19,4.59c0.949,0.792 2.085,1.329 3.3,1.56c5.22,1.25 10.73,-0.21 15.59,-2.46c3.42,-1.59 7.1,-4.37 6.81,-8.12c-0.14,-1.79 -1.18,-3.36 -1.89,-5c-1.39,-3.23 -1.5,-6.83 -1.88,-10.33c-0.94,-8.78 -3.65,-17.26 -5.69,-25.84c-2.04,-8.58 -3.44,-17.57 -1.71,-26.23c3.542,-17.909 9.205,-35.332 16.87,-51.9c0.336,-0.88 0.866,-1.673 1.55,-2.32c0.768,-0.438 1.5,-0.937 2.19,-1.49c0.529,-0.822 0.87,-1.751 1,-2.72c0.76,-2.74 3,-4.77 4.53,-7.17c3.83,-6.08 2.62,-13.87 2.48,-21.05c-0.14,-7 0.86,-14 -0.28,-20.92c-1.14,-6.92 -5.04,-13.94 -11.69,-16.06c-3.29,-1.07 -6.85,-0.82 -10.29,-0.48c-18.23,1.8 -35.95,5.11 -53.07,11.67Z" style="fill-opacity:0.1;fill-rule:nonzero;"/><path d="M668.92,613.23c-0.054,2.712 -0.359,5.414 -0.91,8.07c-3.22,18 -6.647,36 -10.28,54c-0.32,1.56 -0.63,3.12 -1.05,4.65c-1.369,4.998 -3.752,9.662 -7,13.7c-15.15,18.89 -16.46,46.32 -24.68,69.1c-0.56,1.54 -1.11,3.09 -1.7,4.61c-1.487,3.858 -3.179,7.633 -5.07,11.31c-0.208,0.531 -0.553,0.996 -1,1.35c-0.509,0.261 -1.08,0.375 -1.65,0.33c-7.398,0.037 -14.706,-1.626 -21.36,-4.86c-0.948,-0.355 -1.749,-1.022 -2.27,-1.89c-0.251,-0.694 -0.333,-1.438 -0.24,-2.17c0.23,-4.51 0.51,-9.19 2.66,-13.16c1.431,-2.373 3.203,-4.523 5.26,-6.38c0.479,-14.197 2.206,-28.325 5.16,-42.22c1.6,-7.08 3.58,-14.23 7.69,-20.21c3,-4.42 7.38,-8.78 6.84,-14.11c-0.23,-2.34 -1.21,-5.25 0.69,-6.62c0.83,-0.61 2.06,-0.69 2.63,-1.55c0.224,-0.406 0.35,-0.857 0.37,-1.32c0.39,-3.656 0.16,-7.351 -0.68,-10.93c-0.691,-2.341 -1.235,-4.722 -1.63,-7.13c-0.373,-2.441 0.275,-4.93 1.79,-6.88c0.1,-4.87 0,-9.92 0.07,-14.78c0.193,-2.769 -0.04,-5.551 -0.69,-8.25c-0.36,-1.27 -0.93,-2.49 -1.21,-3.79c-1,-4.67 1.52,-10.27 -1.5,-14c-1.26,-1.54 -3.2,-2.31 -4.85,-3.42c-3.236,-2.346 -5.584,-5.721 -6.66,-9.57c-1.075,-3.829 -1.713,-7.767 -1.9,-11.74c-0.095,-0.841 -0.095,-1.689 0,-2.53c0.048,-0.438 0.163,-0.866 0.34,-1.27c0.94,-2.11 3.46,-2.93 5.71,-3.47c14.283,-3.424 28.923,-5.136 43.61,-5.1c5.44,-3.7 8.49,-2.37 10.8,1.54c1.269,2.396 2.297,4.912 3.07,7.51c1,3.18 1.12,21 2.14,24.17c1.3,4.15 -2.55,12.65 -2.5,17.01Z" style="fill:#696791;fill-rule:nonzero;"/><path d="M570.68,451.29c-0.4,2.8 0.94,5.55 1.09,8.38c0.13,2.47 -0.66,4.88 -1.1,7.31c-1.76,9.48 1.61,19.09 5,28.11c0.654,1.463 1.06,3.024 1.2,4.62c0.09,2.94 -1.6,5.64 -2.07,8.55c-1,6.11 3.53,11.85 3.63,18c0,2.85 -0.86,5.75 -0.14,8.5c0.47,1.84 1.62,3.43 2.43,5.14c1.45,3 1.84,6.5 3.22,9.57c2.49,5.55 7.84,9.18 12.94,12.51c2.89,-1 6,-2.11 7.62,-4.72c0.7,-1.284 1.151,-2.689 1.33,-4.14c1.1,-6.33 1.06,-12.79 1,-19.21c0.109,-5.526 -0.168,-11.053 -0.83,-16.54c-1,-7 -3.29,-13.7 -4.92,-20.57c-2,-8.65 -3.09,-17.59 -6.28,-25.9c-2.81,-7.29 -7.17,-13.84 -11.77,-20.12c-1.75,-2.39 -3.14,-5.81 -6.54,-5.26c-2.951,0.507 -5.282,2.822 -5.81,5.77Z" style="fill:#434175;fill-rule:nonzero;"/><path d="M570.68,449.29c-0.4,2.8 0.94,5.55 1.09,8.38c0.13,2.47 -0.66,4.88 -1.1,7.31c-1.76,9.48 1.61,19.09 5,28.11c0.654,1.463 1.06,3.024 1.2,4.62c0.09,2.94 -1.6,5.64 -2.07,8.55c-1,6.11 3.53,11.85 3.63,18c0,2.85 -0.86,5.75 -0.14,8.5c0.47,1.84 1.62,3.43 2.43,5.14c1.45,3 1.84,6.5 3.22,9.57c2.49,5.55 7.84,9.18 12.94,12.51c2.89,-1 6,-2.11 7.62,-4.72c0.7,-1.284 1.151,-2.689 1.33,-4.14c1.1,-6.33 1.06,-12.79 1,-19.21c0.109,-5.526 -0.168,-11.053 -0.83,-16.54c-1,-7 -3.29,-13.7 -4.92,-20.57c-2,-8.65 -3.09,-17.59 -6.28,-25.9c-2.81,-7.29 -7.17,-13.84 -11.77,-20.12c-1.75,-2.39 -3.14,-5.81 -6.54,-5.26c-2.951,0.507 -5.282,2.822 -5.81,5.77Z" style="fill-opacity:0.05;fill-rule:nonzero;"/><path d="M644.66,390.28c-2.251,3.602 -4.112,7.433 -5.55,11.43c-2.061,0.508 -4.177,0.763 -6.3,0.76c-8.25,0 -14.08,-4.69 -18.93,-10.62c-0.42,-1.9 -3,-3.67 -2.74,-5.16c0.39,-2 2.25,-1.59 3.93,-1.48c5.117,0.406 10.211,1.074 15.26,2c1.32,0.16 14.13,3.4 14.33,3.07Z" style="fill-opacity:0.1;fill-rule:nonzero;"/><circle cx="632.81" cy="375.34" r="26.41" style="fill:#ee8e9e;"/><path d="M666.18,564.56c-4.57,-0.27 -9.18,-0.08 -13.76,0.1c-2.871,0.032 -5.733,0.327 -8.55,0.88c-3.47,0.79 -6.71,2.37 -10.13,3.36c-5.48,1.59 -11.26,1.66 -16.93,2.22c-3.728,0.359 -7.431,0.94 -11.09,1.74c0.048,-0.438 0.163,-0.866 0.34,-1.27c0.94,-2.11 3.46,-2.93 5.71,-3.47c14.283,-3.424 28.923,-5.136 43.61,-5.1c5.44,-3.65 8.49,-2.37 10.8,1.54Z" style="fill-opacity:0.1;fill-rule:nonzero;"/><path d="M648.18,418.58c-1.15,1.33 -2.7,2.8 -4.4,2.37c-0.619,-0.212 -1.2,-0.523 -1.72,-0.92c-3,-2 -6.78,-2.42 -10.36,-3c-7.219,-1.087 -14.351,-2.691 -21.34,-4.8c-2.032,-0.736 -4.162,-1.167 -6.32,-1.28c-4.47,0 -8.44,3 -11.24,6.48c-2.8,3.48 -4.8,7.57 -7.55,11.1c-2,2.52 -4.3,4.74 -6.13,7.35c-4.62,6.59 -5.62,15.19 -4.42,23.15c1.2,7.96 4.37,15.47 7.53,22.88c1.674,4.327 3.729,8.496 6.14,12.46c-1.06,6 -0.5,13 2.38,18.4c0.93,1.77 2.08,3.49 2.39,5.47c0.141,1.334 0.087,2.681 -0.16,4l-1.35,9.56c-0.41,2.91 -0.82,5.82 -1.35,8.72c-1,5.29 -2.28,11 0.17,15.82c2.93,5.74 -0.15,13.09 0.62,19.49c8.264,-3.193 16.923,-5.249 25.74,-6.11c5.67,-0.56 11.45,-0.63 16.93,-2.22c3.42,-1 6.66,-2.57 10.13,-3.37c2.817,-0.551 5.679,-0.842 8.55,-0.87c6.33,-0.25 12.7,-0.51 19,0.42c0.5,0.08 1.12,0.12 1.43,-0.29c0.129,-0.229 0.195,-0.488 0.19,-0.75c0.095,-2.347 -0.466,-4.674 -1.62,-6.72c-0.8,-1.41 -1.91,-2.79 -1.88,-4.41c0.054,-0.757 0.24,-1.498 0.55,-2.19l2.77,-7.4c2.35,-6.25 1.23,-13.51 2.45,-20.07c0.951,-5.13 1.559,-10.319 1.82,-15.53c0.23,-4.45 0.09,-9.27 -2.6,-12.83c-0.776,-0.861 -1.447,-1.811 -2,-2.83c-0.39,-1.078 -0.553,-2.226 -0.48,-3.37c-0.06,-8.907 0.183,-17.813 0.73,-26.72c-2.34,-4.21 -4.79,-8.51 -7.13,-12.72c-2.73,-4.9 -5.49,-9.9 -6.59,-15.4c-0.73,-3.63 -0.71,-7.38 -1.23,-11.05c-0.056,-0.934 -0.379,-1.833 -0.93,-2.59c-1.031,-0.901 -2.405,-1.307 -3.76,-1.11c-1.689,0.037 -3.362,0.334 -4.96,0.88Z" style="fill:#434175;fill-rule:nonzero;"/><path d="M744.87,402.71c-1.658,1.284 -3.637,2.089 -5.72,2.33c-2.72,0.18 -8.51,-1.42 -10.2,-3.75c-0.723,-1.171 -1.072,-2.535 -1,-3.91c0.37,-0.118 0.753,-0.192 1.14,-0.22c2.955,-0.321 5.941,-0.2 8.86,0.36c2.88,0.7 5.66,2.45 6.87,5.16l0.05,0.03Z" style="fill-opacity:0.1;fill-rule:nonzero;"/><path d="M657,459.83c1.61,2 3.28,4.06 5.56,5.25c2.63,1.36 5.72,1.39 8.67,1.33c12.17,-0.271 24.294,-1.609 36.23,-4c1.363,-0.235 2.702,-0.593 4,-1.07c1.426,-0.684 2.768,-1.529 4,-2.52c3.93,-2.82 7.92,-5.7 10.91,-9.51c3.55,-4.6 5.783,-10.079 6.46,-15.85c2.84,-2.61 4.35,-6.34 5.77,-9.93c0.702,-1.523 1.148,-3.152 1.32,-4.82c0.07,-1.71 -1.06,-3.5 -0.74,-5.18c0.544,-2.9 2.015,-5.546 4.19,-7.54c0.463,-0.329 0.813,-0.794 1,-1.33c0.063,-0.443 -0.018,-0.896 -0.23,-1.29c-1.22,-2.71 -4,-4.45 -6.88,-5.16c-2.922,-0.565 -5.912,-0.686 -8.87,-0.36c-0.985,0.187 -1.954,0.448 -2.9,0.78l-2.07,5.43c-0.274,0.911 -0.733,1.756 -1.35,2.48c-0.458,0.419 -0.946,0.803 -1.46,1.15c-2.129,1.804 -3.222,4.557 -2.91,7.33c-3.851,1.496 -5.905,5.78 -4.66,9.72c-3.155,0.681 -5.737,2.956 -6.81,6c-0.145,0.685 -0.45,1.325 -0.89,1.87c-0.669,0.516 -1.496,0.784 -2.34,0.76c-2.34,0.14 -4.38,2 -6.49,1c-2.404,-1.121 -5.09,-1.498 -7.71,-1.08c-0.54,0.129 -1.096,0.18 -1.65,0.15c-0.472,-0.083 -0.928,-0.241 -1.35,-0.47c-0.952,-0.555 -1.984,-0.96 -3.06,-1.2c-1.101,-0.235 -2.243,0.205 -2.9,1.12c-0.74,-0.81 -1.18,-1.85 -1.85,-2.72c-0.612,-0.942 -1.703,-1.464 -2.82,-1.35c0.7,-0.62 0,-1.87 -0.93,-2.1c-0.937,-0.071 -1.88,-0.038 -2.81,0.1c-2.44,0 -4.32,-2.23 -6.69,-2.81c-2.18,-0.53 -5.09,0.11 -6.21,-1.84c-0.39,-0.69 -0.47,-1.63 -1.14,-2c-0.458,-0.227 -0.982,-0.287 -1.48,-0.17c-1.547,0.203 -3.051,0.659 -4.45,1.35c-2.29,9 -1.09,18.24 0.65,27.3c0.643,4.085 2.327,7.935 4.89,11.18Z" style="fill:#434175;fill-rule:nonzero;"/><path d="M656.93,491.88l-11.37,22.94c1.23,-2.13 3.82,-3 5.87,-4.31c2.588,-1.88 4.534,-4.514 5.57,-7.54c1.029,-3.016 1.749,-6.129 2.15,-9.29c0.23,-1.45 0.71,-3.49 0,-4.81c-1.26,0.27 -1.68,1.94 -2.22,3.01Z" style="fill-opacity:0.1;fill-rule:nonzero;"/><path d="M624.21,511.37c-2.57,2.54 -5.71,4.41 -8.53,6.66c-6.6,5.26 -11.3,12.46 -15.89,19.53c-1.297,1.848 -2.387,3.833 -3.25,5.92c0.54,0.46 1.34,0 1.88,-0.49l8.93,-7.84c1.103,-0.892 2.108,-1.897 3,-3c1.55,-2.09 2.24,-4.69 3.65,-6.88c1.533,-2.096 3.362,-3.959 5.43,-5.53c2.05,-1.76 11.47,-9.73 9.18,-12.83c-1.69,0.8 -3.05,3.1 -4.4,4.46Z" style="fill-opacity:0.1;fill-rule:nonzero;"/><path d="M643.72,411.95c-2.928,-1.618 -6.133,-2.673 -9.45,-3.11c-1.967,-0.445 -3.99,-0.59 -6,-0.43c-1.86,0.23 -3.65,0.95 -5.52,1c-2.63,0.15 -5.14,-0.92 -7.68,-1.61c-2.54,-0.69 -5.47,-1 -7.6,0.57c-0.456,0.448 -1.033,0.754 -1.66,0.88c-0.646,-0.087 -1.246,-0.382 -1.71,-0.84c-3.686,-2.639 -8.751,-2.372 -12.14,0.64c-4.84,4.54 -4.29,13.41 -10,16.86c-1.56,1 -3.56,1.45 -4.48,3c-0.223,0.504 -0.48,0.992 -0.77,1.46c-0.377,0.426 -0.841,0.767 -1.36,1c-1.648,0.735 -3.216,1.636 -4.68,2.69c-1.476,1.071 -2.449,2.702 -2.69,4.51c-0.021,1.309 0.259,2.606 0.82,3.79c5.679,13.923 19.589,22.817 34.61,22.13c1.306,0.074 2.596,-0.328 3.63,-1.13c0.544,-0.616 0.974,-1.324 1.27,-2.09c2.67,-5.59 7.68,-9.72 10.86,-15c1.89,-3.17 3.11,-6.72 5.09,-9.84c3,-4.73 7.54,-8.23 12,-11.62c2.52,-1.91 5.31,-3.92 8.47,-3.79c2.81,0.12 4.86,0.27 3.82,-3.17c-0.855,-2.479 -2.569,-4.572 -4.83,-5.9Z" style="fill:#434175;fill-rule:nonzero;"/><path d="M643.72,411.95c-2.928,-1.618 -6.133,-2.673 -9.45,-3.11c-1.967,-0.445 -3.99,-0.59 -6,-0.43c-1.86,0.23 -3.65,0.95 -5.52,1c-2.63,0.15 -5.14,-0.92 -7.68,-1.61c-2.54,-0.69 -5.47,-1 -7.6,0.57c-0.456,0.448 -1.033,0.754 -1.66,0.88c-0.646,-0.087 -1.246,-0.382 -1.71,-0.84c-3.686,-2.639 -8.751,-2.372 -12.14,0.64c-4.84,4.54 -4.29,13.41 -10,16.86c-1.56,1 -3.56,1.45 -4.48,3c-0.223,0.504 -0.48,0.992 -0.77,1.46c-0.377,0.426 -0.841,0.767 -1.36,1c-1.648,0.735 -3.216,1.636 -4.68,2.69c-1.476,1.071 -2.449,2.702 -2.69,4.51c-0.021,1.309 0.259,2.606 0.82,3.79c5.679,13.923 19.589,22.817 34.61,22.13c1.306,0.074 2.596,-0.328 3.63,-1.13c0.544,-0.616 0.974,-1.324 1.27,-2.09c2.67,-5.59 7.68,-9.72 10.86,-15c1.89,-3.17 3.11,-6.72 5.09,-9.84c3,-4.73 7.54,-8.23 12,-11.62c2.52,-1.91 5.31,-3.92 8.47,-3.79c2.81,0.12 4.86,0.27 3.82,-3.17c-0.855,-2.479 -2.569,-4.572 -4.83,-5.9Z" style="fill-opacity:0.05;fill-rule:nonzero;"/><path d="M657.47,794.73c-1.92,1.79 -4.55,2.57 -7.1,3.12c-5.832,1.14 -11.736,1.872 -17.67,2.19l-5.77,0.44c-5.63,0.43 -11.27,0.86 -16.92,0.88c-6.98,0.021 -13.947,-0.581 -20.82,-1.8c-0.637,-0.024 -1.236,-0.314 -1.65,-0.8c-0.214,-0.401 -0.302,-0.858 -0.25,-1.31c0.121,-7.037 0.979,-14.042 2.56,-20.9c0.65,-2.81 5.7,3.5 5.93,3.77c1.056,1.492 2.762,2.395 4.59,2.43c5.81,0.32 12.32,-3.21 16.93,-6.35c0.991,-0.736 2.041,-1.388 3.14,-1.95c0.808,-0.361 1.663,-0.603 2.54,-0.72c2.989,-0.278 5.995,0.331 8.64,1.75c3.47,1.72 6.51,4.19 10,6c2.795,1.433 5.81,2.386 8.92,2.82c3.14,0.43 6.9,0.64 8.51,3.36c1.28,2.25 0.32,5.29 -1.58,7.07Z" style="fill:#434175;fill-rule:nonzero;"/><path d="M657.47,795.77c-1.92,1.79 -4.55,2.57 -7.1,3.12c-5.832,1.14 -11.736,1.872 -17.67,2.19l-5.77,0.44c-5.63,0.43 -11.27,0.86 -16.92,0.88c-6.98,0.026 -13.948,-0.576 -20.82,-1.8c-0.636,-0.02 -1.235,-0.307 -1.65,-0.79c-0.543,-0.72 -0.977,-1.515 -1.29,-2.36c0.12,-7 2,-14.05 3.6,-20.9c0.65,-2.81 5.7,3.5 5.93,3.77c1.056,1.492 2.762,2.395 4.59,2.43c5.81,0.32 12.32,-3.21 16.93,-6.35c0.991,-0.736 2.041,-1.388 3.14,-1.95c0.808,-0.361 1.663,-0.603 2.54,-0.72c-0.75,4.18 -6.74,9.23 -9.84,10.77c-6.26,3.11 -13.7,1.55 -20.68,1.92c-0.512,-0.011 -1.018,0.11 -1.47,0.35c-0.83,0.56 -0.88,1.75 -0.86,2.75c0.06,1.66 0.27,3.62 1.72,4.46c0.722,0.349 1.518,0.517 2.32,0.49c17.211,0.752 34.454,0.147 51.57,-1.81c2.879,-0.19 5.712,-0.821 8.4,-1.87c1.758,-0.821 3.396,-1.878 4.87,-3.14c2.2,1.72 0.36,6.34 -1.54,8.12Z" style="fill:#e8eaf2;fill-rule:nonzero;"/><path d="M643.09,375.06c-0.1,2.73 1.76,8 -3.35,6.55c-3,-0.88 -3.9,-4.49 -7.76,-3.69c-3.86,0.8 -4.76,5.57 -6.06,8.68c-2.154,5.013 -6.649,8.654 -12,9.72c-1.089,0.255 -2.221,0.255 -3.31,0c-2.49,-0.71 -3.91,-3.28 -4.93,-5.66c-0.881,-2.016 -1.61,-4.095 -2.18,-6.22c-0.402,-1.493 -0.666,-3.019 -0.79,-4.56c-0.085,-1.048 -0.085,-2.102 0,-3.15c0.46,-6.21 4,-11.87 8.52,-16.15c4.52,-4.28 10,-7.38 15.45,-10.43c1.775,-1.103 3.693,-1.957 5.7,-2.54c1.975,-0.394 4,-0.475 6,-0.24c2.644,0.108 5.244,0.719 7.66,1.8c0.989,0.488 1.896,1.125 2.69,1.89c1.134,1.047 1.946,2.397 2.34,3.89c1,4 -1.58,7.63 -3.66,10.8c-1.9,2.81 -4.19,5.79 -4.32,9.31Z" style="fill:#434175;fill-rule:nonzero;"/><path d="M729,433.67c-1.09,-2.75 -5.67,-10.36 -4.35,-13c1.381,1.951 2.551,4.042 3.49,6.24c0.86,2.15 0.18,5.01 0.86,6.76Z" style="fill-opacity:0.1;fill-rule:nonzero;"/><path d="M647.47,365.74c2.08,-3.17 4.64,-6.79 3.66,-10.8c-0.485,-1.769 -1.54,-3.33 -3,-4.44c0.339,0.585 0.595,1.214 0.76,1.87c1,4 -1.58,7.62 -3.66,10.8c-1.85,2.82 -4.14,5.81 -4.28,9.32c-0.1,2.73 1.77,8 -3.34,6.55c-3,-0.88 -3.9,-4.49 -7.77,-3.69c-3.87,0.8 -4.75,5.56 -6.06,8.68c-2.151,5.015 -6.647,8.657 -12,9.72c-1.089,0.255 -2.221,0.255 -3.31,0c-0.561,-0.164 -1.088,-0.425 -1.56,-0.77c0.779,1.557 2.131,2.754 3.77,3.34c1.092,0.25 2.228,0.25 3.32,0c5.35,-1.075 9.843,-4.717 12,-9.73c1.31,-3.12 2.16,-7.86 6.06,-8.67c3.9,-0.81 4.72,2.8 7.77,3.68c5.11,1.48 3.24,-3.82 3.34,-6.55c0.16,-3.5 2.46,-6.49 4.3,-9.31Z" style="fill-opacity:0.1;fill-rule:nonzero;"/><path d="M648.6,360.31c-0.473,0.778 -0.994,1.527 -1.56,2.24c-1.078,1.362 -2.287,2.614 -3.61,3.74c-0.79,0.68 -1.6,1.31 -2.44,1.91c-1.568,1.105 -3.215,2.091 -4.93,2.95c-5.076,2.362 -10.358,4.254 -15.78,5.65l-10.54,3.07c-1.3,1 -3.67,2.74 -6.28,4.57c-0.402,-1.493 -0.666,-3.019 -0.79,-4.56c-0.085,-1.048 -0.085,-2.102 0,-3.15c0.46,-6.21 4,-11.87 8.52,-16.15c4.52,-4.28 10,-7.38 15.45,-10.43c1.775,-1.103 3.693,-1.957 5.7,-2.54c1.975,-0.394 4,-0.475 6,-0.24c2.644,0.108 5.244,0.719 7.66,1.8c0.989,0.488 1.896,1.125 2.69,1.89c0.597,0.877 1.052,1.842 1.35,2.86c0.66,2.15 -0.26,4.45 -1.44,6.39Z" style="fill-opacity:0.1;fill-rule:nonzero;"/><path d="M648.6,359.6c-0.473,0.778 -0.994,1.527 -1.56,2.24c-1.078,1.362 -2.287,2.614 -3.61,3.74c-0.79,0.68 -1.6,1.31 -2.44,1.91c-1.57,1.101 -3.217,2.087 -4.93,2.95c-5.076,2.362 -10.358,4.254 -15.78,5.65l-10.54,3.06c-3.68,2.79 -16,11.91 -18.07,10.77c-2.44,-1.34 10.93,-10.81 10.93,-10.81l0.61,0.47c-2,-1.23 -3,-4.08 -3.42,-6.55c-0.78,-4.42 -1.15,-9 -0.1,-13.37c1.05,-4.37 3.67,-8.51 7.66,-10.55c1.77,-0.92 3.92,-1.53 5.2,-2.93c0.192,-0.213 0.363,-0.444 0.51,-0.69c0.078,-0.113 0.145,-0.234 0.2,-0.36c0.134,-0.388 0.322,-0.755 0.56,-1.09c0.73,-0.84 2.06,-0.59 3.17,-0.45l0.36,0c0.197,0.01 0.393,0.01 0.59,0c4,0.09 7.81,-2.12 11.82,-2.12c4.39,0 8.13,2.54 12,4.28c0.78,0.35 1.52,0.67 2.22,1c2.8,1.3 4.9,2.69 6,6.38c0.72,2.24 -0.2,4.55 -1.38,6.47Z" style="fill:#ba54f5;fill-rule:nonzero;"/><path d="M617.94,343.65c0.454,0.767 0.274,1.761 -0.42,2.32c-0.487,0.348 -1.062,0.553 -1.66,0.59c-0.431,0.059 -0.865,0.092 -1.3,0.1c-0.585,0.045 -1.172,-0.055 -1.71,-0.29c-0.105,-0.055 -0.205,-0.119 -0.3,-0.19c0.192,-0.213 0.363,-0.444 0.51,-0.69c0.1,0.08 0.2,0.06 0.59,0c0.725,-0.034 1.444,-0.155 2.14,-0.36c0.289,-0.079 0.56,-0.211 0.8,-0.39c0.357,-0.304 0.62,-0.703 0.76,-1.15l0.59,0.06Z" style="fill-opacity:0.1;fill-rule:nonzero;"/><path d="M602.86,379.01c0.558,0.348 1.18,0.579 1.83,0.68c0.463,0.117 0.934,0.194 1.41,0.23c1.212,-0.062 2.393,-0.404 3.45,-1" style="fill-opacity:0.1;fill-rule:nonzero;"/><defs><linearGradient id="_Linear1" x1="0" y1="0" x2="1" y2="0" gradientUnits="userSpaceOnUse" gradientTransform="matrix(2.8304e-14,-462.24,462.24,2.8304e-14,660.07,801.36)"><stop offset="0" style="stop-color:#808080;stop-opacity:0.247059"/><stop offset="0.54" style="stop-color:#808080;stop-opacity:0.117647"/><stop offset="1" style="stop-color:#808080;stop-opacity:0.0980392"/></linearGradient></defs></svg>