<?xml version="1.0" encoding="UTF-8" standalone="no"?>
<!DOCTYPE svg PUBLIC "-//W3C//DTD SVG 1.1//EN" "http://www.w3.org/Graphics/SVG/1.1/DTD/svg11.dtd">
<svg width="100%" height="100%" viewBox="0 0 6000 867" version="1.1" xmlns="http://www.w3.org/2000/svg" xmlns:xlink="http://www.w3.org/1999/xlink" xml:space="preserve" xmlns:serif="http://www.serif.com/" style="fill-rule:evenodd;clip-rule:evenodd;stroke-linejoin:round;stroke-miterlimit:1.41421;">
    <g transform="matrix(2,0,0,2,0,-0.71919)">
        <g>
            <path d="M2764,1.059C2753.4,2.357 2738.04,5.513 2727.5,8.56C2664.8,26.679 2609.54,80.3 2588.95,143C2581.93,164.353 2578.78,184.9 2578.74,209.5C2578.64,267.3 2597.08,314.221 2636.06,355.4C2679.17,400.948 2733.1,422.824 2797,420.688C2851.4,418.87 2896.06,399.967 2935.1,362.235C2976.62,322.108 2997.67,274.6 2999.68,216.5C3000.31,198.329 2998.64,181.2 2994.37,162C2985.64,122.7 2965.85,88.329 2934.7,58.358C2902.58,27.446 2869,10.399 2824.5,2.408C2813.91,0.507 2775.5,-0.35 2764,1.059Z" style="fill:white;fill-rule:nonzero;"/>
            <path d="M2335.7,2.153C2306,5.017 2272.07,16.389 2247.3,31.783C2222.1,47.444 2196.47,72.67 2180.54,97.5C2158.16,132.362 2148,167.6 2148,210.3C2148,245 2153.87,272.254 2167.43,300.6C2177.77,322.2 2188.5,337.39 2206.41,355.8C2238.96,389.254 2274.2,408.128 2320,416.637C2333.93,419.226 2379.3,419.19 2393.5,416.58C2438.8,408.251 2473.91,389.379 2506.57,355.8C2523.75,338.135 2534.14,323.7 2544.21,303.5C2556.81,278.216 2563.56,252.1 2564.71,224.2L2565.3,210L2461.2,209.75L2357.1,209.5L2382.15,166C2395.91,142.1 2410.71,116.418 2415,109C2419.3,101.565 2431.2,80.9 2441.5,63C2451.8,45.1 2460.41,30.141 2460.67,29.7C2461.45,28.395 2435.5,16.423 2422.6,12.133C2393.78,2.548 2365.4,-0.711 2335.7,2.153Z" style="fill:white;fill-rule:nonzero;"/>
            <path d="M1068,206.4L1068,409L1463,409L1463,211L1463,13L1365,13L1267,13L1266.75,85.95L1266.5,158.9L1242,139.8C1228.51,129.282 1201.1,107.872 1181,92.15C1151.1,68.762 1087.63,19.136 1071.8,6.769L1068,3.8L1068,206.4Z" style="fill:white;fill-rule:nonzero;"/>
            <path d="M0,12.5C0,13.008 25.183,55.9 68.989,130C75.992,141.846 95.755,175.3 113,204.5C130.244,233.7 151.597,269.85 160.55,285C169.507,300.159 187.652,330.9 200.981,353.5C251.466,439.1 248.325,434.009 249.55,432.2C250.183,431.265 271.396,396.05 296.75,353.85L342.8,277.2L322.85,243.4L302.9,209.6L308.9,203.6C312.2,200.3 315.102,197.803 315.35,198.05C315.598,198.299 322.408,209.7 330.55,223.5C366.365,284.2 456.211,434.101 456.537,433.7C456.626,433.59 469.435,411.9 485,385.5C500.565,359.1 516.76,331.65 520.99,324.5C533.201,303.861 550.354,274.8 568.504,244C577.756,228.3 588.758,209.662 593,202.5C597.235,195.35 619.285,158 642,119.5C664.715,81 688.182,41.265 694.15,31.2C700.138,21.1 705,12.699 705,12.45C705,12.203 546.4,12 352.5,12C158.599,12 0,12.225 0,12.5Z" style="fill:white;fill-rule:nonzero;"/>
            <path d="M707,210.5L707,408L1035,408L1035,341.5L1035,275L994,275L953,275L953,266.5L953,258L993.75,257.75L1034.5,257.5L1034.5,210.5L1034.5,163.5L993.75,163.25L953,163L953,154.5L953,146L1035,146L1035,79.5L1035,13L871,13L707,13L707,210.5Z" style="fill:white;fill-rule:nonzero;"/>
            <path d="M1496,210.95L1496,409L1602.8,409C1671.4,409 1712.64,408.625 1718.1,407.95C1764.8,402.18 1803.46,382.493 1837,347.4C1873.16,309.563 1890.92,264.9 1890.95,211.7C1890.98,157.5 1872.75,112.498 1834.99,73.6C1803.19,40.836 1767.8,22.371 1723.5,15.425C1713.69,13.888 1700.75,13.657 1604.25,13.3L1496,12.9L1496,210.95Z" style="fill:white;fill-rule:nonzero;"/>
            <path d="M1918,211L1918,409L2123,409L2123,211L2123,13L2020.5,13L1918,13L1918,211Z" style="fill:white;fill-rule:nonzero;"/>
        </g>
    </g>
</svg>
