<?xml version="1.0" encoding="UTF-8" standalone="no"?><!DOCTYPE svg PUBLIC "-//W3C//DTD SVG 1.1//EN" "http://www.w3.org/Graphics/SVG/1.1/DTD/svg11.dtd"><svg width="100%" height="100%" viewBox="0 0 3000 434" version="1.1" xmlns="http://www.w3.org/2000/svg" xmlns:xlink="http://www.w3.org/1999/xlink" xml:space="preserve" xmlns:serif="http://www.serif.com/" style="fill-rule:evenodd;clip-rule:evenodd;stroke-linejoin:round;stroke-miterlimit:1.41421;"><g><path d="M2764,0.699c-10.6,1.298 -25.958,4.454 -36.5,7.501c-62.7,18.119 -117.962,71.74 -138.553,134.44c-7.012,21.353 -10.166,41.9 -10.206,66.5c-0.096,57.8 18.337,104.721 57.317,145.9c43.115,45.548 97.042,67.424 160.942,65.288c54.4,-1.818 99.059,-20.721 138.1,-58.453c41.519,-40.127 62.572,-87.635 64.583,-145.735c0.628,-18.171 -1.04,-35.3 -5.309,-54.5c-8.738,-39.3 -28.528,-73.671 -59.674,-103.642c-32.124,-30.912 -65.7,-47.959 -110.2,-55.95c-10.588,-1.901 -49,-2.758 -60.5,-1.349Z" style="fill:#fff;fill-rule:nonzero;"/><path d="M2335.7,1.793c-29.7,2.864 -63.63,14.236 -88.4,29.63c-25.2,15.661 -50.828,40.887 -66.763,65.717c-22.373,34.862 -32.537,70.1 -32.537,112.8c0,34.7 5.865,61.954 19.435,90.3c10.339,21.6 21.065,36.79 38.977,55.2c32.548,33.454 67.788,52.328 113.588,60.837c13.932,2.589 59.3,2.553 73.5,-0.057c45.3,-8.329 80.407,-27.201 113.067,-60.78c17.183,-17.665 27.571,-32.1 37.64,-52.3c12.604,-25.284 19.357,-51.4 20.507,-79.3l0.586,-14.2l-104.1,-0.25l-104.1,-0.25l25.05,-43.5c13.763,-23.9 28.564,-49.582 32.85,-57c4.296,-7.435 16.2,-28.1 26.5,-46c10.299,-17.9 18.912,-32.859 19.173,-33.3c0.773,-1.305 -25.173,-13.277 -38.073,-17.567c-28.825,-9.585 -57.2,-12.844 -86.9,-9.98Z" style="fill:#fff;fill-rule:nonzero;"/><path d="M1068,206.04l0,202.6l395,0l0,-198l0,-198l-98,0l-98,0l-0.25,72.95l-0.25,72.95l-24.5,-19.1c-13.492,-10.518 -40.9,-31.928 -61,-47.65c-29.9,-23.388 -93.371,-73.014 -109.2,-85.381l-3.8,-2.969l0,202.6Z" style="fill:#fff;fill-rule:nonzero;"/><path d="M0,12.14c0,0.508 25.183,43.4 68.989,117.5c7.003,11.846 26.766,45.3 44.011,74.5c17.244,29.2 38.597,65.35 47.55,80.5c8.957,15.159 27.102,45.9 40.431,68.5c50.485,85.6 47.344,80.509 48.569,78.7c0.633,-0.935 21.846,-36.15 47.2,-78.35l46.05,-76.65l-19.95,-33.8l-19.95,-33.8l6,-6c3.3,-3.3 6.202,-5.797 6.45,-5.55c0.248,0.249 7.058,11.65 15.2,25.45c35.815,60.7 125.661,210.601 125.987,210.2c0.089,-0.11 12.898,-21.8 28.463,-48.2c15.565,-26.4 31.76,-53.85 35.99,-61c12.211,-20.639 29.364,-49.7 47.514,-80.5c9.252,-15.7 20.254,-34.338 24.496,-41.5c4.235,-7.15 26.285,-44.5 49,-83c22.715,-38.5 46.182,-78.235 52.15,-88.3c5.988,-10.1 10.85,-18.501 10.85,-18.75c0,-0.247 -158.6,-0.45 -352.5,-0.45c-193.901,0 -352.5,0.225 -352.5,0.5Z" style="fill:#fff;fill-rule:nonzero;"/><path d="M707,210.14l0,197.5l328,0l0,-66.5l0,-66.5l-41,0l-41,0l0,-8.5l0,-8.5l40.75,-0.25l40.75,-0.25l0,-47l0,-47l-40.75,-0.25l-40.75,-0.25l0,-8.5l0,-8.5l82,0l0,-66.5l0,-66.5l-164,0l-164,0l0,197.5Z" style="fill:#fff;fill-rule:nonzero;"/><path d="M1496,210.59l0,198.05l106.8,0c68.6,0 109.84,-0.375 115.3,-1.05c46.7,-5.77 85.358,-25.457 118.897,-60.55c36.162,-37.837 53.919,-82.5 53.952,-135.7c0.034,-54.2 -18.201,-99.202 -55.957,-138.1c-31.804,-32.764 -67.192,-51.229 -111.492,-58.175c-9.806,-1.537 -22.75,-1.768 -119.25,-2.125l-108.25,-0.4l0,198.05Z" style="fill:#fff;fill-rule:nonzero;"/><path d="M1918,210.64l0,198l205,0l0,-198l0,-198l-102.5,0l-102.5,0l0,198Z" style="fill:#fff;fill-rule:nonzero;"/></g></svg>